<?xml version="1.0" encoding="UTF-8"?><svg id="Layer_3" xmlns="http://www.w3.org/2000/svg" viewBox="0 0 722.83 864.57"><defs><style>.cls-1{fill:#1e1e1e;}.cls-2{fill:none;stroke:#1e1e1e;stroke-miterlimit:10;stroke-width:1.42px;}</style></defs><path class="cls-1" d="M72.45,229.32c-.29-4.82-.34-9.51-.24-13.63.21-9.2.76-18.41,1.47-27.58l76.27.25-.1,10.77s-30.44.03-36.46,0c-5.12-.02-15.93-1.17-20.17,2.31-5.99,4.92-4.09,17.17-4.06,23.88.05,11.44,2.15,21.9,9.71,30.95,10.44,12.49,26.4,15.85,41.92,16.56,10.69.49,24.33-1.05,33.43,5.82,9.1,6.87,9.31,23.13,1.81,31.3-5.4,5.88-13.82,8.4-21.78,7.78-7.95-.62-15.47-4.08-22.03-8.61-8.41-5.81-17.85-14.73-28.77-14.11-9.06.52-15.26,12.2-15.14,21.28.11,9.21.61,55.17.61,55.17l69.43.06.22,12.86-85.76.1s.13-20.73.18-31.09c.08-17.55-1.63-56.96,10.33-65.81,13.7-10.14,29.39,1.35,40.85,9.94,6.01,4.51,12.69,8.83,20.19,9.24,6.01.32,12.64-3.45,16.67-7.7,3.11-3.28,4.91-8.22,3.24-12.42-1.2-3.03-3.99-5.2-7.02-6.4s-6.31-1.54-9.55-1.88c-21.83-2.27-61.07.96-70.89-24.8-2.58-6.78-3.86-15.7-4.37-24.24Z"/><path class="cls-2" d="M72.45,229.32c-.78-14.24.26-27.23,1.23-41.21,0,0,76.27.25,76.27.25l-.1,10.77s-30.44.03-36.46,0c-5.12-.02-15.93-1.17-20.17,2.31-5.99,4.92-4.09,17.17-4.06,23.88-.65,32.03,21.76,46.88,51.63,47.51,10.69.49,24.33-1.05,33.43,5.82,9.1,6.87,9.31,23.13,1.81,31.3-5.4,5.88-13.82,8.4-21.78,7.78-21.74-1.28-32.37-23.21-50.8-22.72-9.06.52-15.26,12.2-15.14,21.28.11,9.21.61,55.17.61,55.17l69.43.06.22,12.86-85.76.1s.13-20.73.18-31.09c.08-17.55-1.63-56.96,10.33-65.81,13.7-10.14,29.39,1.35,40.85,9.94,12.42,9.6,24.57,13.94,36.86,1.54,6.18-6.6,4.93-15.51-3.78-18.82-3.03-1.2-6.31-1.54-9.55-1.88-21.83-2.27-61.07.96-70.89-24.8-2.58-6.78-3.86-15.7-4.37-24.24h0Z"/><path class="cls-1" d="M294.14,291.56c-.18,2.99-.85,5.98-1.91,8.75-5.24,13.78-45.13,86.81-50.06,84.56-7.18-3.27-39.72-45.07-35.58-60.8,1.31-4.98,3.61-9.61,5.96-14.2s4.42-9.61,3.89-14.74c-.69-6.7-5.69-12.19-11.17-16.1-5.49-3.91-11.72-6.77-16.83-11.17-9.41-8.09-11.22-24.91-12.92-36.66-2.08-14.45-3.12-42.91-3.12-42.91h18.29s-1.36,24.25-.77,32.84c1.31,18.99,4.89,38.14,20.12,50.16,4.39,3.47,9.3,6.25,13.49,9.95s7.71,8.63,8.07,14.2c.78,12.12-12.91,20.19-12.35,31.81.55,11.25,14.5,25.2,22.55,31.82-.09-.07,29.05-51.25,31.17-57.23,3.46-9.77,3.74-21.21-1.77-29.99-3.64-5.81-10.12-9.56-13.31-15.63-12.04-22.95,18.38-67.94,18.38-67.94h15.88s-17.73,28.98-21.03,40.7c-3.29,11.72-2.36,25.32,5.43,34.68,7.25,8.71,18.35,14.96,17.58,27.87Z"/><path class="cls-2" d="M294.14,291.56c-.18,2.99-.85,5.98-1.91,8.75-5.24,13.78-45.13,86.81-50.06,84.56-7.18-3.27-39.72-45.07-35.58-60.8,1.31-4.98,3.61-9.61,5.96-14.2,2.35-4.59,4.42-9.61,3.89-14.74-.69-6.7-5.69-12.19-11.17-16.1-5.49-3.91-11.72-6.77-16.83-11.17-9.41-8.09-11.22-24.91-12.92-36.66-2.08-14.45-3.12-42.91-3.12-42.91h18.29c-1.48,22.11-4.04,66.03,19.35,83,4.38,3.47,9.3,6.25,13.49,9.95,4.19,3.7,7.71,8.63,8.07,14.2.78,12.12-12.91,20.19-12.35,31.81.55,11.25,14.5,25.2,22.55,31.82-.09-.07,29.05-51.25,31.17-57.23,3.46-9.77,3.74-21.21-1.77-29.99-3.64-5.81-10.12-9.56-13.31-15.63-12.04-22.95,18.38-67.94,18.38-67.94h15.88s-17.73,28.98-21.03,40.7c-9.91,40.55,23.61,38.44,23.01,62.55h0Z"/><path class="cls-1" d="M391.27,384.81h-18.16s-24.69-33.75-16.74-55.84c3.6-10.02,8.17-15.39,10.27-22.23,5.28-17.13.88-33.65-7.77-48.79-4.34-7.6-22.48-40.19-27.84-44.63-6.81,7.52-11.37,20.29-15.19,29.63-2.69,6.58-4.97,13.77-3.36,20.69,3.02,13,14.8,14.78,22.63,22.78,5.94,6.08,5.84,15.85,2.43,22.77-7.63,15.45-45.6,75.42-45.6,75.42h-17.91s27.79-43.99,37.89-59.97c8.21-13,22.2-23.78,6.46-38.73-4.77-4.53-11.8-6.58-15.45-12.05-4.19-6.26-2.46-14.63-.28-21.84,3.45-11.42,7.64-22.62,12.53-33.5,4.03-8.96,16.03-30.94,16.03-30.94,0,0,13.42,21.44,19.28,30.74,6.22,9.87,13.23,19.81,18.04,30.47,5.29,11.73,10.85,20.83,12.6,33.72,1.66,12.18-3.95,25.07-8.14,33.05-7.39,14.1-8.44,17.63,2.67,40.73,3.86,8.02,15.61,28.52,15.61,28.52Z"/><path class="cls-2" d="M391.27,384.81h-18.16s-24.69-33.75-16.74-55.84c3.6-10.02,8.17-15.39,10.27-22.23,5.28-17.13.88-33.65-7.77-48.79-4.34-7.6-22.48-40.19-27.84-44.63-6.81,7.52-11.37,20.29-15.19,29.63-2.69,6.58-4.97,13.77-3.36,20.69,3.02,13,14.8,14.78,22.63,22.78,5.94,6.08,5.84,15.85,2.43,22.77-7.63,15.45-45.6,75.42-45.6,75.42h-17.91s27.79-43.99,37.89-59.97c8.21-13,22.2-23.78,6.46-38.73-4.77-4.53-11.8-6.58-15.45-12.05-4.19-6.26-2.46-14.63-.28-21.84,3.45-11.42,7.64-22.62,12.53-33.5,4.03-8.96,16.03-30.94,16.03-30.94,0,0,13.42,21.44,19.28,30.74,6.22,9.87,13.23,19.81,18.04,30.47,5.29,11.73,10.85,20.83,12.6,33.72,1.66,12.18-3.95,25.07-8.14,33.05-7.39,14.1-8.44,17.63,2.67,40.73,3.86,8.02,15.61,28.52,15.61,28.52h0Z"/><path class="cls-1" d="M506.26,359.69c-2.11,8.2-7.24,25.16-7.24,25.16l-15.72-.47s11.58-35.52,12.52-38.29c3.88-11.45,12.14-28.46,12.8-43.69.11-2.63-.42-5.29-1.44-7.71-3.8-9.03-20.55-3.45-26.89.84-13.79,9.34-38.5,21.3-44.16-.58-7.03-27.15,19.63-29.48,35.09-40.57,10.44-7.49,18.6-22.8,17.7-35.91-.5-7.21-3.9-14.46-9.95-18.27-5.01-3.15-11.17-3.66-17.06-3.87-9.53-.35-13.41-.16-22.95.04-2.73.06-9.55.22-11.54,2.11-2.36,2.25-2.36,6-2.18,9.28,1.03,19.11,1.86,48.97-4.67,62.87-7.04,14.99-11.14,32.71-8.11,51.14,4.34,26.12,33.76,62.77,33.76,62.77l-22.24-.41s-15.43-26.27-20.38-41.29c-4.96-15.02-6.86-31.5-2.55-46.73,9.87-34.86,5.83-107.8,5.83-107.8,0,0,62.68-1.59,80.43,3.75,15.09,4.54,22.99,18.62,21.01,35.02-1.56,12.87-9,26.24-20.47,32.3-7.08,3.74-15.11,7.11-22.92,8.82-10.19,2.24-22.54,4.42-25.52,16.4-1.54,6.18,4.24,9.55,9.77,9.21,7.28-.45,14.91-5.82,21.02-9.5,5.72-3.45,11.57-6.9,18.06-8.48,6.49-1.58,13.82-1.03,19.15,2.99,4.3,3.24,6.85,8.39,8,13.66,4.81,22.12-3.7,45.98-9.15,67.21Z"/><path class="cls-2" d="M506.26,359.69c-2.11,8.2-7.24,25.16-7.24,25.16l-15.72-.47s11.58-35.52,12.52-38.29c3.5-11.46,16.93-37.22,11.37-51.4-3.8-9.03-20.55-3.45-26.89.84-13.79,9.34-38.5,21.3-44.16-.58-7.03-27.15,19.63-29.48,35.09-40.57,10.44-7.49,18.6-22.8,17.7-35.91-.5-7.21-3.9-14.46-9.95-18.27-5.01-3.15-11.17-3.66-17.06-3.87-9.53-.35-13.41-.16-22.95.04-2.73.06-9.55.22-11.54,2.11-2.36,2.25-2.36,6-2.18,9.28,1.03,19.11,1.86,48.97-4.67,62.87-7.04,14.99-11.14,32.71-8.11,51.14,4.34,26.12,33.76,62.77,33.76,62.77l-22.24-.41c-11.23-19.47-32.76-55.35-22.93-88.02,9.87-34.86,5.83-107.8,5.83-107.8,0,0,62.68-1.59,80.43,3.75,30.72,8.97,25.49,54.02.54,67.32-7.08,3.74-15.11,7.11-22.92,8.82-10.19,2.24-22.54,4.42-25.52,16.4-1.54,6.18,4.24,9.55,9.77,9.21,7.28-.45,14.91-5.82,21.02-9.5,5.72-3.45,11.57-6.9,18.06-8.48,13.37-3.26,24.36,2.98,27.15,16.65,4.81,22.12-3.7,45.98-9.15,67.21h0Z"/><path class="cls-1" d="M650.19,385l-18.77-.19c-6.97-19.91-13.97-39.8-21-59.68-7.57-21.44-15.17-42.87-22.85-64.26-3.17-8.84-6.36-17.67-9.6-26.48-.54-1.48-8.28-20.91-8.97-20.29-7.84,7.08-39.68,49.51-18.19,57.64,5.5,2.08,11.03-2.74,16.79-3.92,17.03-3.51,17.91,17.5,10.64,27.32-4.99,6.75-12.22,11.49-17.78,17.77-8.26,9.32-12.46,21.67-13.98,34.03-.78,6.37-.89,12.8-.7,19.21.1,3.38.65,18.85.65,18.85,0,0-15.97,0-16.93-.15,0,0,.36-30,4.81-45.07,3.46-11.69,9.79-22.98,19.35-30.76,6.44-5.24,22.92-16.3,16.06-26.6-7.43-11.17-23.29,2.68-33.52-4.72-4.41-3.19-6.58-8.81-6.69-14.24-.11-5.44,1.6-10.75,3.7-15.77,4.93-11.82,12.05-22.56,19.98-32.56,4-5.04,22.42-27.1,22.42-27.1,0,0,5.82,14.93,8.54,22.12,13.42,35.53,26.84,71.05,40.26,106.58,8.6,22.76,17.19,45.51,25.79,68.27Z"/><path class="cls-2" d="M650.19,385l-18.77-.19c-6.97-19.91-13.97-39.8-21-59.68-10.71-30.28-21.41-60.58-32.45-90.74-.54-1.48-8.28-20.91-8.97-20.29-7.84,7.08-39.68,49.51-18.19,57.64,5.5,2.08,11.03-2.74,16.79-3.92,17.03-3.51,17.91,17.5,10.64,27.32-4.99,6.75-12.22,11.49-17.78,17.77-12.66,14.32-15.39,34.7-14.68,53.24.1,3.38.65,18.85.65,18.85,0,0-15.97,0-16.93-.15,0,0,.36-30,4.81-45.07,3.46-11.69,9.79-22.98,19.35-30.76,6.44-5.24,22.92-16.3,16.06-26.6-7.43-11.17-23.29,2.68-33.52-4.72-4.41-3.19-6.58-8.81-6.69-14.24-.11-5.44,1.6-10.75,3.7-15.77,6.89-19.1,31.61-46.59,42.4-59.66,24.4,63.47,50.21,132.73,74.58,196.96h0Z"/></svg>