<svg width="1511" height="513" viewBox="0 0 1511 513" fill="none" xmlns="http://www.w3.org/2000/svg">
<path d="M2.60661 110.929C1.8508 98.5382 1.72049 86.4812 1.98111 75.8896C2.52843 52.2383 3.96187 28.5614 5.8123 4.98732L204.591 5.63002L204.33 33.3174C204.33 33.3174 124.996 33.3945 109.307 33.3174C95.9625 33.266 67.7889 30.3095 56.7384 39.2559C41.127 51.9041 46.0789 83.3963 46.1571 100.646C46.2874 130.056 51.7605 156.946 71.4638 180.212C98.673 212.321 140.269 220.959 180.718 222.784C208.579 224.044 244.128 220.085 267.845 237.746C291.562 255.407 292.109 297.208 272.562 318.212C258.488 333.328 236.544 339.806 215.798 338.212C195.078 336.618 175.479 327.724 158.382 316.078C136.464 301.142 111.861 278.21 83.4004 279.804C59.7878 281.141 43.629 311.168 43.9418 334.51C44.2284 358.187 45.5316 476.341 45.5316 476.341L226.484 476.495L227.057 509.555L3.54487 509.812C3.54487 509.812 3.88368 456.52 4.01399 429.887C4.22249 384.769 -0.234198 283.455 30.9366 260.703C66.6422 234.635 107.534 264.174 137.402 286.257C153.065 297.851 170.475 308.957 190.022 310.011C205.686 310.834 222.965 301.142 233.468 290.216C241.574 281.784 246.265 269.084 241.913 258.287C238.785 250.497 231.514 244.919 223.617 241.834C215.72 238.749 207.171 237.875 198.727 237.001C141.833 231.165 39.5632 239.469 13.9699 173.245C7.24574 155.815 3.90974 132.884 2.58055 110.929H2.60661Z" fill="#222121"/>
<path d="M2.60627 110.929C0.547331 74.3471 3.25783 40.9526 5.7859 4.98732L204.565 5.63002L204.304 33.3174C204.304 33.3174 124.97 33.3945 109.28 33.3174C95.9361 33.266 67.7625 30.3095 56.712 39.2559C41.1006 51.9041 46.0525 83.3963 46.1307 100.646C44.4366 182.988 102.843 221.165 180.691 222.784C208.552 224.044 244.101 220.085 267.818 237.746C291.535 255.407 292.083 297.208 272.536 318.212C258.462 333.328 236.517 339.806 215.772 338.212C159.112 334.922 131.407 278.544 83.374 279.804C59.7613 281.141 43.6026 311.168 43.9153 334.51C44.202 358.187 45.5052 476.341 45.5052 476.341L226.457 476.495L227.031 509.555L3.51846 509.812C3.51846 509.812 3.85727 456.52 3.98758 429.887C4.19608 384.769 -0.260607 283.455 30.9102 260.703C66.6158 234.635 107.508 264.174 137.375 286.257C169.745 310.936 201.411 322.094 233.442 290.216C249.549 273.249 246.291 250.343 223.59 241.834C215.693 238.749 207.145 237.875 198.701 237.001C141.806 231.165 39.5368 239.469 13.9435 173.245C7.21933 155.815 3.88333 132.884 2.55414 110.929H2.60627Z" stroke="#222121" stroke-width="1.42" stroke-miterlimit="10"/>
<path d="M580.36 270.935C579.891 278.622 578.145 286.308 575.382 293.429C561.726 328.855 457.762 516.599 444.913 510.815C426.2 502.408 341.393 394.95 352.183 354.511C355.597 341.709 361.591 329.806 367.716 318.006C373.841 306.206 379.236 293.301 377.854 280.113C376.056 262.888 363.025 248.775 348.743 238.723C334.434 228.671 318.197 221.319 304.879 210.007C280.355 189.21 275.637 145.969 271.207 115.762C265.786 78.6146 263.075 5.45006 263.075 5.45006H310.744C310.744 5.45006 307.199 67.7916 308.737 89.8746C312.151 138.694 321.481 187.924 361.174 218.825C372.616 227.746 385.413 234.893 396.333 244.404C407.253 253.916 416.427 266.59 417.365 280.91C419.398 312.068 383.719 332.814 385.178 362.686C386.611 391.608 422.969 427.47 443.949 444.489C443.714 444.309 519.661 312.736 525.186 297.363C534.203 272.246 534.933 242.836 520.573 220.265C511.086 205.329 494.198 195.688 485.884 180.083C454.504 121.084 533.786 5.42435 533.786 5.42435H575.174C575.174 5.42435 528.965 79.9257 520.364 110.055C511.79 140.185 514.214 175.148 534.516 199.21C553.412 221.602 582.341 237.669 580.334 270.858L580.36 270.935Z" fill="#222121"/>
<path d="M580.36 270.935C579.891 278.622 578.145 286.308 575.382 293.429C561.726 328.855 457.762 516.599 444.913 510.815C426.2 502.408 341.393 394.95 352.183 354.511C355.597 341.709 361.591 329.806 367.716 318.006C373.841 306.206 379.236 293.301 377.854 280.113C376.056 262.888 363.025 248.775 348.743 238.723C334.434 228.671 318.197 221.319 304.879 210.007C280.355 189.21 275.637 145.969 271.207 115.762C265.786 78.6146 263.075 5.45006 263.075 5.45006H310.744C306.886 62.2901 300.214 175.199 361.174 218.825C372.59 227.746 385.413 234.893 396.333 244.404C407.253 253.916 416.427 266.59 417.365 280.91C419.398 312.068 383.719 332.814 385.178 362.686C386.611 391.608 422.969 427.47 443.949 444.489C443.714 444.309 519.661 312.736 525.186 297.363C534.203 272.246 534.933 242.836 520.573 220.265C511.086 205.329 494.198 195.688 485.884 180.083C454.504 121.084 533.786 5.42435 533.786 5.42435H575.174C575.174 5.42435 528.965 79.9257 520.364 110.055C494.536 214.301 581.898 208.876 580.334 270.858L580.36 270.935Z" stroke="#222121" stroke-width="1.42" stroke-miterlimit="10"/>
<path d="M833.505 510.661H786.176C786.176 510.661 721.827 423.897 742.547 367.108C751.929 341.349 763.84 327.544 769.313 309.959C783.074 265.922 771.607 223.453 749.063 184.531C737.751 164.993 690.474 81.2111 676.505 69.7968C658.756 89.1291 646.871 121.958 636.916 145.969C629.905 162.885 623.963 181.369 628.159 199.159C636.029 232.579 666.731 237.155 687.138 257.721C702.619 273.351 702.358 298.468 693.471 316.258C673.585 355.976 574.626 510.146 574.626 510.146H527.948C527.948 510.146 600.376 397.058 626.699 355.976C648.096 322.556 684.558 294.843 643.535 256.41C631.104 244.764 612.782 239.494 603.269 225.432C592.349 209.339 596.857 187.821 602.539 169.286C611.531 139.928 622.451 111.135 635.195 83.1649C645.699 60.1306 676.974 3.62481 676.974 3.62481C676.974 3.62481 711.95 58.7424 727.222 82.6507C743.433 108.024 761.703 133.578 774.239 160.983C788.026 191.138 802.517 214.532 807.078 247.669C811.404 278.981 796.783 312.119 785.863 332.634C766.603 368.882 763.866 377.957 792.822 437.342C802.882 457.959 833.505 510.661 833.505 510.661Z" fill="#222121"/>
<path d="M833.505 510.661H786.176C786.176 510.661 721.827 423.897 742.547 367.108C751.929 341.349 763.84 327.544 769.313 309.959C783.074 265.922 771.607 223.453 749.063 184.531C737.751 164.993 690.474 81.2111 676.505 69.7968C658.756 89.1291 646.871 121.958 636.916 145.969C629.905 162.885 623.963 181.369 628.159 199.159C636.029 232.579 666.731 237.155 687.138 257.721C702.619 273.351 702.358 298.468 693.471 316.258C673.585 355.976 574.626 510.146 574.626 510.146H527.948C527.948 510.146 600.376 397.058 626.699 355.976C648.096 322.556 684.558 294.843 643.535 256.41C631.104 244.764 612.782 239.494 603.269 225.432C592.349 209.339 596.857 187.821 602.539 169.286C611.531 139.928 622.451 111.135 635.195 83.1649C645.699 60.1306 676.974 3.62481 676.974 3.62481C676.974 3.62481 711.95 58.7424 727.222 82.6507C743.433 108.024 761.703 133.578 774.239 160.983C788.026 191.138 802.517 214.532 807.078 247.669C811.404 278.981 796.783 312.119 785.863 332.634C766.603 368.882 763.866 377.957 792.822 437.342C802.882 457.959 833.505 510.661 833.505 510.661Z" stroke="#222121" stroke-width="1.42" stroke-miterlimit="10"/>
<path d="M1133.2 446.082C1127.7 467.163 1114.33 510.763 1114.33 510.763L1073.36 509.555C1073.36 509.555 1103.54 418.241 1105.99 411.12C1116.1 381.684 1137.63 337.955 1139.35 298.802C1139.63 292.041 1138.25 285.203 1135.59 278.981C1125.69 255.767 1082.04 270.112 1065.51 281.141C1029.57 305.152 965.172 335.899 950.421 279.65C932.099 209.853 1001.58 203.863 1041.87 175.353C1069.08 156.098 1090.35 116.739 1088 83.0363C1086.7 64.501 1077.84 45.8628 1062.07 36.0681C1049.02 27.9701 1032.96 26.659 1017.61 26.1192C992.772 25.2194 982.66 25.7078 957.797 26.222C950.682 26.3762 932.907 26.7876 927.72 31.6464C921.57 37.4306 921.57 47.0711 922.039 55.5032C924.723 104.631 926.886 181.395 909.868 217.128C891.52 255.664 880.834 301.219 888.731 348.598C900.042 415.747 976.718 509.966 976.718 509.966L918.755 508.912C918.755 508.912 878.541 441.378 865.64 402.765C852.713 364.152 847.761 321.785 858.994 282.632C884.717 193.014 874.188 5.50148 874.188 5.50148C874.188 5.50148 1037.55 1.41393 1083.81 15.1419C1123.14 26.8133 1143.73 63.0099 1138.57 105.171C1134.5 138.257 1115.11 172.628 1085.22 188.207C1066.76 197.822 1045.84 206.485 1025.48 210.881C998.923 216.64 966.736 222.244 958.969 253.042C954.956 268.93 970.02 277.593 984.432 276.719C1003.41 275.562 1023.29 261.757 1039.22 252.297C1054.12 243.428 1069.37 234.558 1086.28 230.497C1103.2 226.435 1122.3 227.849 1136.19 238.183C1147.4 246.512 1154.05 259.752 1157.04 273.3C1169.58 330.166 1147.4 391.505 1133.2 446.082Z" fill="#222121"/>
<path d="M1133.2 446.082C1127.7 467.163 1114.33 510.763 1114.33 510.763L1073.36 509.555C1073.36 509.555 1103.54 418.241 1105.99 411.12C1115.11 381.659 1150.11 315.435 1135.62 278.981C1125.72 255.767 1082.06 270.112 1065.54 281.141C1029.6 305.152 965.199 335.899 950.448 279.65C932.126 209.853 1001.61 203.863 1041.9 175.353C1069.11 156.098 1090.38 116.739 1088.03 83.0363C1086.73 64.501 1077.87 45.8628 1062.1 36.0681C1049.04 27.9701 1032.99 26.659 1017.64 26.1192C992.799 25.2194 982.687 25.7078 957.823 26.222C950.708 26.3762 932.934 26.7876 927.747 31.6464C921.597 37.4306 921.597 47.0711 922.066 55.5032C924.75 104.631 926.913 181.395 909.894 217.128C891.546 255.664 880.861 301.219 888.758 348.598C900.069 415.747 976.745 509.966 976.745 509.966L918.782 508.912C889.514 458.859 833.401 366.62 859.02 282.632C884.744 193.014 874.215 5.50148 874.215 5.50148C874.215 5.50148 1037.57 1.41393 1083.84 15.1419C1163.9 38.2019 1150.27 154.016 1085.24 188.207C1066.79 197.822 1045.86 206.485 1025.51 210.881C998.95 216.64 966.763 222.244 958.996 253.042C954.983 268.93 970.047 277.593 984.459 276.719C1003.43 275.562 1023.32 261.757 1039.24 252.297C1054.15 243.428 1069.4 234.558 1086.31 230.497C1121.16 222.116 1149.8 238.157 1157.07 273.3C1169.61 330.166 1147.43 391.505 1133.22 446.082H1133.2Z" stroke="#222121" stroke-width="1.42" stroke-miterlimit="10"/>
<path d="M1508.32 511.149L1459.4 510.661C1441.23 459.476 1422.99 408.343 1404.67 357.236C1384.94 302.119 1365.13 247.027 1345.11 192.038C1336.85 169.312 1328.54 146.612 1320.09 123.963C1318.69 120.158 1298.51 70.2081 1296.71 71.802C1276.28 90.0032 1193.3 199.082 1249.31 219.982C1263.64 225.329 1278.05 212.938 1293.07 209.905C1337.45 200.881 1339.74 254.893 1320.8 280.138C1307.79 297.491 1288.95 309.677 1274.46 325.821C1252.93 349.781 1241.98 381.53 1238.02 413.305C1235.99 429.681 1235.7 446.211 1236.2 462.69C1236.46 471.379 1237.89 511.149 1237.89 511.149C1237.89 511.149 1196.27 511.149 1193.77 510.763C1193.77 510.763 1194.71 433.64 1206.3 394.898C1215.32 364.846 1231.82 335.822 1256.73 315.821C1273.52 302.35 1316.47 273.917 1298.59 247.438C1279.23 218.722 1237.89 254.328 1211.23 235.304C1199.74 227.103 1194.08 212.655 1193.79 198.696C1193.51 184.711 1197.96 171.06 1203.44 158.155C1216.29 127.768 1234.84 100.158 1255.51 74.4499C1265.93 61.4932 1313.94 4.78166 1313.94 4.78166C1313.94 4.78166 1329.11 43.1635 1336.2 61.6474C1371.18 152.987 1406.15 244.302 1441.13 335.642C1463.54 394.153 1485.93 452.638 1508.34 511.149H1508.32Z" fill="#222121"/>
<path d="M1508.32 511.149L1459.4 510.661C1441.23 459.476 1422.99 408.343 1404.67 357.236C1376.75 279.393 1348.87 201.498 1320.09 123.963C1318.69 120.158 1298.51 70.2081 1296.71 71.802C1276.28 90.0032 1193.3 199.082 1249.31 219.982C1263.64 225.329 1278.05 212.938 1293.07 209.905C1337.45 200.881 1339.74 254.893 1320.8 280.138C1307.79 297.491 1288.95 309.677 1274.46 325.821C1241.46 362.635 1234.35 415.027 1236.2 462.69C1236.46 471.379 1237.89 511.149 1237.89 511.149C1237.89 511.149 1196.27 511.149 1193.77 510.763C1193.77 510.763 1194.71 433.64 1206.3 394.898C1215.32 364.846 1231.82 335.822 1256.73 315.821C1273.52 302.35 1316.47 273.917 1298.59 247.438C1279.23 218.722 1237.89 254.328 1211.23 235.304C1199.74 227.103 1194.08 212.655 1193.79 198.696C1193.51 184.711 1197.96 171.06 1203.44 158.155C1221.39 109.053 1285.82 38.3818 1313.94 4.78166C1377.53 167.949 1444.8 346.002 1508.32 511.123V511.149Z" stroke="#222121" stroke-width="1.42" stroke-miterlimit="10"/>
</svg>
